<?xml version="1.0" standalone="no"?>
<!DOCTYPE svg PUBLIC "-//W3C//DTD SVG 20010904//EN"
 "http://www.w3.org/TR/2001/REC-SVG-20010904/DTD/svg10.dtd">
<svg version="1.0" xmlns="http://www.w3.org/2000/svg"
 width="2256.000000pt" height="388.000000pt" viewBox="0 0 2256.000000 388.000000"
 preserveAspectRatio="xMidYMid meet">
<metadata>
Created by potrace 1.11, written by Peter Selinger 2001-2013
</metadata>
<g transform="translate(0.000000,388.000000) scale(0.100000,-0.100000)"
fill="rgb(100,100,100)" stroke="none">
<path d="M10620 3700 c-30 -21 -91 -57 -135 -79 -75 -38 -88 -41 -209 -51
-138 -11 -159 -19 -266 -101 -19 -14 -127 -73 -239 -130 -136 -68 -206 -110
-213 -124 -15 -32 -127 -94 -190 -105 -70 -11 -179 -71 -218 -120 -18 -23 -46
-44 -67 -51 -22 -7 -57 -33 -85 -64 -26 -29 -74 -68 -105 -87 -32 -20 -84 -51
-115 -70 -77 -47 -166 -57 -253 -29 -71 23 -299 44 -370 35 -27 -4 -60 -13
-75 -21 -14 -7 -29 -13 -33 -13 -4 0 -32 -15 -61 -34 -30 -19 -81 -41 -115
-50 -66 -17 -151 -50 -301 -116 -136 -60 -192 -68 -520 -71 -296 -3 -322 -1
-459 42 -35 11 -103 23 -150 26 -79 5 -100 1 -266 -42 l-180 -46 -200 10
c-139 7 -212 7 -240 0 -22 -6 -85 -15 -140 -20 -55 -5 -145 -13 -200 -17 -55
-5 -120 -17 -145 -26 -99 -38 -137 -46 -215 -46 -91 0 -145 -15 -215 -60 -25
-16 -77 -36 -114 -45 -38 -9 -85 -24 -105 -34 -20 -11 -78 -33 -129 -50 -51
-17 -164 -67 -251 -111 -87 -44 -163 -80 -168 -80 -4 0 -31 -19 -58 -41 -28
-23 -75 -53 -105 -66 -30 -14 -62 -31 -70 -38 -8 -7 -40 -23 -70 -34 -30 -11
-170 -86 -310 -167 -140 -80 -302 -166 -360 -191 -496 -213 -649 -275 -705
-282 -45 -5 -73 -16 -114 -44 -29 -20 -65 -37 -80 -37 -15 0 -98 -34 -186 -76
-101 -47 -176 -77 -205 -79 -359 -35 -425 -49 -635 -133 -106 -42 -113 -44
-184 -37 -69 7 -76 5 -137 -26 -58 -29 -75 -33 -172 -37 -59 -2 -113 -9 -120
-15 -7 -5 -63 -20 -125 -32 -84 -16 -121 -19 -149 -12 -21 5 -49 6 -63 3 l-25
-6 0 -285 0 -285 11280 0 11280 0 0 60 0 59 -42 -1 c-24 -1 -56 3 -73 9 -16 6
-86 25 -155 42 -254 63 -296 74 -340 91 -25 10 -76 25 -115 34 -146 33 -437
112 -500 136 -73 27 -97 34 -155 47 -36 7 -85 24 -110 37 -66 34 -187 76 -220
76 -16 0 -41 11 -57 24 -23 19 -42 24 -105 27 -68 4 -82 8 -120 36 -101 76
-116 84 -177 94 -34 5 -91 23 -125 39 -35 17 -69 30 -77 30 -8 0 -34 10 -59
21 -25 12 -54 23 -65 24 -11 2 -41 12 -65 23 -25 11 -79 28 -120 37 -41 10
-95 27 -120 38 -29 14 -72 22 -125 24 -44 3 -89 8 -100 13 -11 4 -35 13 -52
20 -18 7 -33 19 -33 26 0 10 -13 14 -39 14 -27 0 -65 14 -120 42 -71 37 -91
42 -166 47 -70 5 -89 10 -103 27 -9 11 -28 25 -42 31 -31 13 -143 33 -196 34
-43 0 -143 20 -160 31 -5 4 -35 10 -65 14 -30 4 -58 10 -64 14 -20 15 -142 60
-163 60 -12 0 -30 4 -40 10 -37 20 -89 39 -124 45 -21 3 -38 9 -38 13 0 4 -15
12 -32 18 -18 7 -49 17 -68 24 -62 23 -74 27 -115 40 -22 7 -71 27 -110 46
-38 18 -142 60 -230 92 -88 33 -206 85 -263 117 -97 55 -107 58 -190 64 -79 5
-92 9 -136 41 l-48 35 -197 3 c-186 3 -201 5 -287 33 -50 16 -117 45 -148 64
-31 18 -80 43 -109 54 -28 10 -67 27 -86 36 -18 10 -64 21 -101 25 -57 6 -94
20 -230 89 -89 44 -171 81 -182 81 -10 0 -67 24 -126 54 -59 30 -152 76 -207
101 -55 26 -115 58 -132 71 -18 14 -74 40 -125 58 -51 18 -115 44 -143 58 -78
40 -359 208 -470 280 -60 40 -124 73 -159 83 -69 19 -131 59 -172 109 -21 26
-42 39 -79 48 -27 7 -63 23 -78 35 -20 16 -42 23 -73 23 -24 0 -72 11 -106 24
-35 13 -105 37 -157 53 -74 22 -103 37 -141 70 -94 84 -208 105 -303 56 -49
-26 -62 -28 -232 -34 -150 -5 -188 -9 -225 -26 -65 -29 -144 -46 -180 -38 -17
4 -43 17 -59 30 -15 13 -64 42 -107 64 -51 25 -84 48 -91 63 -8 18 -25 28 -68
38 -38 9 -62 21 -72 36 -8 13 -29 26 -46 29 -18 4 -41 13 -53 20 -12 8 -38 17
-58 20 -20 4 -52 18 -72 31 -32 22 -48 24 -247 33 -194 9 -218 9 -287 -9 -41
-10 -98 -21 -126 -23 -61 -5 -187 14 -209 33 -9 8 -29 10 -52 7 -20 -4 -80 2
-137 13 -56 11 -108 19 -116 19 -8 -1 -40 -18 -70 -39z"/>
</g>
</svg>
