<?xml version="1.0" encoding="UTF-8" standalone="no"?>
<svg
   xmlns:dc="http://purl.org/dc/elements/1.1/"
   xmlns:cc="http://creativecommons.org/ns#"
   xmlns:rdf="http://www.w3.org/1999/02/22-rdf-syntax-ns#"
   xmlns:svg="http://www.w3.org/2000/svg"
   xmlns="http://www.w3.org/2000/svg"
   xmlns:sodipodi="http://sodipodi.sourceforge.net/DTD/sodipodi-0.dtd"
   xmlns:inkscape="http://www.inkscape.org/namespaces/inkscape"
   version="1.1"
   id="Layer_1"
   x="0px"
   y="0px"
   width="782"
   height="167"
   viewBox="0 0 782 167.00001"
   enable-background="new 0 0 782.362 1128.189"
   xml:space="preserve">
<path
   style="fill:#ffffff"
   inkscape:connector-curvature="0"
   d="m 83.275024,163.98459 c 44.574386,0 80.709576,-36.13343 80.709576,-80.709577 0,-44.574386 -36.13519,-80.7095803 -80.709576,-80.7095803 -44.574386,0 -80.7095804,36.1351943 -80.7095804,80.7095803 0,44.576147 36.1351944,80.709577 80.7095804,80.709577"
   id="path3" /><path
   inkscape:connector-curvature="0"
   d="m 5.1291368,83.273249 c 0,-43.090514 35.0553732,-78.1458874 78.1458872,-78.1458874 43.090516,0 78.145886,35.0553734 78.145886,78.1458874 0,43.090511 -35.05537,78.145891 -78.145886,78.145891 -43.090514,0 -78.1458872,-35.05538 -78.1458872,-78.145891 m -5.129150871,0 c 0,45.918871 37.356169071,83.275041 83.275038071,83.275041 45.917106,0 83.273276,-37.35617 83.273276,-83.275041 C 166.5483,37.357908 129.19213,-2.49192e-5 83.275024,-2.49192e-5 37.356155,-2.49192e-5 -1.4071e-5,37.357908 -1.4071e-5,83.273249 z"
   id="path5" /><path
   style="fill:#ffffff"
   inkscape:connector-curvature="0"
   d="m 83.275024,119.80544 c 20.176076,0 36.530426,-16.35612 36.530426,-36.532191 0,-20.176072 -16.35435,-36.532188 -36.530426,-36.532188 -20.176072,0 -36.532188,16.35788 -36.532188,36.532188 0,20.177841 16.356116,36.532191 36.532188,36.532191"
   id="path7" /><path
   inkscape:connector-curvature="0"
   d="m 49.308294,83.273249 c 0,-18.727488 15.237478,-33.96673 33.96673,-33.96673 18.729256,0 33.966726,15.239242 33.966726,33.96673 0,18.731021 -15.23747,33.968491 -33.966726,33.968491 -18.729252,0 -33.96673,-15.23747 -33.96673,-33.968491 m -5.129151,0 c 0,21.559371 17.538273,39.095881 39.095881,39.095881 21.557606,0 39.095886,-17.53651 39.095886,-39.095881 0,-21.557608 -17.53828,-39.094117 -39.095886,-39.094117 -21.557608,0 -39.095881,17.536509 -39.095881,39.094117 z"
   id="path9" /><path
   style="fill:#0db14b"
   inkscape:connector-curvature="0"
   d="m 83.275024,105.73777 c 12.405593,0 22.462756,-10.057163 22.462756,-22.462757 0,-12.403829 -10.057163,-22.460987 -22.462756,-22.460987 -12.405593,0 -22.462752,10.057158 -22.462752,22.460987 0,12.403829 10.057159,22.462757 22.462752,22.462757"
   id="path11" /><path
   style="fill:#0db14b"
   inkscape:connector-curvature="0"
   d="m 61.422759,83.273249 c 0,-12.049182 9.803083,-21.852265 21.852265,-21.852265 12.049182,0 21.852266,9.803083 21.852266,21.852265 0,12.049182 -9.803084,21.854031 -21.852266,21.854031 -12.049182,0 -21.852265,-9.804849 -21.852265,-21.854031 m -1.220974,0 c 0,12.723188 10.350051,23.073241 23.073239,23.073241 12.721424,0 23.073236,-10.350053 23.073236,-23.073241 0,-12.723188 -10.351812,-23.071475 -23.073236,-23.071475 -12.723188,0 -23.073239,10.348287 -23.073239,23.071475 z"
   id="path13" /><path
   style="fill:#ffffff"
   inkscape:connector-curvature="0"
   d="m 448.40282,164.43628 c 44.57438,0 80.70958,-36.13519 80.70958,-80.709577 0,-44.57615 -36.1352,-80.7095803 -80.70958,-80.7095803 -44.57439,0 -80.70958,36.1334303 -80.70958,80.7095803 0,44.574387 36.13519,80.709577 80.70958,80.709577"
   id="path15" /><path
   inkscape:connector-curvature="0"
   d="m 370.25869,83.726703 c 0,-43.092278 35.05538,-78.1458871 78.14413,-78.1458871 43.09051,0 78.14588,35.0536091 78.14588,78.1458871 0,43.090517 -35.05537,78.145887 -78.14588,78.145887 -43.08875,0 -78.14413,-35.05537 -78.14413,-78.145887 m -5.12915,0 c 0,45.915337 37.35617,83.273277 83.27328,83.273277 45.9171,0 83.27327,-37.35794 83.27327,-83.273277 0,-45.917105 -37.35617,-83.27503799 -83.27327,-83.27503799 -45.91711,0 -83.27328,37.35793299 -83.27328,83.27503799 z"
   id="path17" /><path
   style="fill:#ffffff"
   inkscape:connector-curvature="0"
   d="m 448.40282,120.25713 c 20.17607,0 36.53218,-16.35612 36.53218,-36.530427 0,-20.177836 -16.35788,-36.532188 -36.53218,-36.532188 -20.17431,0 -36.53043,16.356116 -36.53043,36.532188 0,20.176067 16.35612,36.530427 36.53043,36.530427"
   id="path19" /><path
   inkscape:connector-curvature="0"
   d="m 414.43609,83.726703 c 0,-18.729252 15.23571,-33.968494 33.96673,-33.968494 18.72748,0 33.96673,15.239242 33.96673,33.968494 0,18.727487 -15.23925,33.968497 -33.96673,33.968497 -18.73102,0 -33.96673,-15.24101 -33.96673,-33.968497 m -5.12916,0 c 0,21.557607 17.53651,39.094117 39.09589,39.094117 21.5576,0 39.09235,-17.53651 39.09235,-39.094117 0,-21.559372 -17.53475,-39.095881 -39.09235,-39.095881 -21.55761,0 -39.09589,17.536509 -39.09589,39.095881 z"
   id="path21" /><path
   style="fill:#ed1c24"
   inkscape:connector-curvature="0"
   d="m 448.40282,106.18769 c 12.40382,0 22.46098,-10.057158 22.46098,-22.460987 0,-12.405593 -10.05716,-22.460988 -22.46098,-22.460988 -12.4056,0 -22.46099,10.055395 -22.46099,22.460988 0,12.403829 10.05539,22.460987 22.46099,22.460987"
   id="path23" /><path
   style="fill:#ed1c24"
   inkscape:connector-curvature="0"
   d="m 426.55232,83.726703 c 0,-12.049182 9.80308,-21.854029 21.8505,-21.854029 12.05094,0 21.85226,9.804847 21.85226,21.854029 0,12.047418 -9.80132,21.852267 -21.85226,21.852267 -12.04742,0 -21.8505,-9.804849 -21.8505,-21.852267 m -1.22098,0 c 0,12.723188 10.35005,23.071477 23.07148,23.071477 12.72318,0 23.07324,-10.348289 23.07324,-23.071477 0,-12.724952 -10.35006,-23.073239 -23.07324,-23.073239 -12.72143,0 -23.07148,10.348287 -23.07148,23.073239 z"
   id="path25" /><polyline
   style="fill:#ffffff"
   points="261.229,950.523 291.71,950.523 329.65,986.503 329.65,950.555 358.87,950.555 358.87,1037.092   335.34,1037.092 292.771,995.568 292.771,1037.261 261.129,1037.261 "
   id="polyline27"
   transform="matrix(1.7644138,0,0,1.7644138,-281.78572,-1670.3988)" /><path
   inkscape:connector-curvature="0"
   d="m 231.88807,9.2825561 c 1.45211,1.3762429 70.52891,66.8836339 70.52891,66.8836339 0,0 0,-62.107366 0,-66.8307015 4.38986,0 42.03893,0 46.42879,0 0,4.8733105 0,142.6846115 0,147.5596915 -4.39339,0 -36.05051,0 -37.9102,0 -1.4627,-1.42918 -78.71579,-76.785525 -78.71579,-76.785525 0,0 0,72.305675 0,77.083705 -4.44279,0 -46.25058,0 -50.69867,0 0.005,-4.88213 0.16409,-143.044551 0.17115,-147.9125683 4.55395,0.00176 48.32377,0.00176 50.19581,0.00176 m 1.02336,-5.1309153 H 176.5684 L 176.38667,162.32252 h 60.9605 c 0,0 0,-59.80657 0,-70.043703 7.72989,7.537576 71.50287,69.745513 71.50287,69.745513 h 45.12311 V 4.208102 H 297.2896 c 0,0 0,50.232861 0,60.025357 C 289.71497,57.05406 233.93479,4.1534052 233.93479,4.1534052 h -1.02336 z"
   id="path29" /><polyline
   style="fill:#ffffff"
   points="467.822,950.453 530.238,950.453 530.238,969.069 498.042,969.139 498.042,985.057 527.7,985.057   527.8,1003.973 497.811,1004.041 497.811,1037.191 467.922,1037.191 "
   id="polyline31"
   transform="matrix(1.7644138,0,0,1.7644138,-281.78572,-1670.3988)" /><path
   inkscape:connector-curvature="0"
   d="m 651.20807,9.1590471 c 0,3.9911039 0,23.7401879 0,27.7224699 -4.66688,0.01059 -56.80354,0.121744 -56.80354,0.121744 v 33.208032 c 0,0 47.72563,0 52.34133,0 0.0229,3.98934 0.12704,24.234224 0.15174,28.253559 -4.65805,0.01764 -52.89889,0.121744 -52.89889,0.121744 0,0 0,53.793444 0,58.483264 -4.40574,0 -43.21225,0 -47.60917,0 -0.009,-4.86802 -0.16939,-143.032209 -0.17292,-147.9125773 4.77804,0.00176 100.21694,0.00176 104.99145,0.00176 m 2.56545,-5.1291509 h -112.6931 l 0.18173,158.1708738 h 57.86395 c 0,0 0,-53.81638 0,-58.49384 4.63159,-0.0177 52.92536,-0.12175 52.92536,-0.12175 l -0.20291,-38.497744 c 0,0 -47.67623,0 -52.31663,0 0,-3.811134 0,-19.15977 0,-22.962081 4.66863,-0.01235 56.80706,-0.121745 56.80706,-0.121745 V 4.0298962 h -2.56546 z"
   id="path33" /><polyline
   style="fill:#ffffff"
   points="539.039,950.415 601.455,950.415 601.455,969.031 569.259,969.102 569.259,985.019   598.916,985.019 598.886,1003.935 569.028,1004.004 569.028,1037.153 539.139,1037.153 "
   id="polyline35"
   transform="matrix(1.7644138,0,0,1.7644138,-281.78572,-1670.3988)" /><path
   inkscape:connector-curvature="0"
   d="m 776.86432,9.090235 c 0,3.991104 0,23.740188 0,27.72247 -4.66863,0.01235 -56.80883,0.123509 -56.80883,0.123509 v 33.206267 c 0,0 47.67976,0 52.32546,0 -0.007,4.012277 -0.0388,24.26069 -0.0459,28.253558 -4.62452,0.01765 -52.68539,0.121745 -52.68539,0.121745 0,0 0,53.795216 0,58.483256 -4.40398,0 -43.2105,0 -47.60918,0 -0.005,-4.86801 -0.16762,-143.032201 -0.17115,-147.9125694 4.7798,0.00176 100.21871,0.00176 104.99497,0.00176 m 2.5637,-5.1273865 H 666.73314 l 0.1835,158.1691115 h 57.86219 c 0,0 0,-53.81639 0,-58.49561 4.63159,-0.0176 52.67481,-0.11998 52.67481,-0.11998 l 0.0618,-38.497746 c 0,0 -47.6921,0 -52.33251,0 0,-3.80937 0,-19.158005 0,-22.962082 4.66864,-0.01059 56.80707,-0.121744 56.80707,-0.121744 V 3.9646129 h -2.56193 z"
   id="path37" />
</svg>