<svg xmlns="http://www.w3.org/2000/svg" width="782" height="167" viewBox="0 0 782 167.00001"><path d="M83.275 163.985c44.574 0 80.71-36.134 80.71-80.71 0-44.574-36.136-80.71-80.71-80.71-44.574 0-80.71 36.136-80.71 80.71 0 44.576 36.136 80.71 80.71 80.71" fill="#fff"/><path d="M5.13 83.273c0-43.09 35.055-78.146 78.145-78.146 43.09 0 78.146 35.056 78.146 78.146s-35.054 78.146-78.145 78.146c-43.09 0-78.146-35.056-78.146-78.147m-5.13 0c0 45.92 37.356 83.275 83.275 83.275 45.917 0 83.273-37.356 83.273-83.275C166.548 37.358 129.192 0 83.275 0 37.355 0 0 37.358 0 83.273z"/><path d="M83.275 119.805c20.176 0 36.53-16.356 36.53-36.532 0-20.176-16.354-36.532-36.53-36.532-20.176 0-36.532 16.36-36.532 36.533 0 20.178 16.356 36.532 36.532 36.532" fill="#fff"/><path d="M49.308 83.273c0-18.727 15.238-33.966 33.967-33.966 18.73 0 33.967 15.24 33.967 33.966 0 18.73-15.238 33.97-33.967 33.97-18.73 0-33.967-15.24-33.967-33.97m-5.13 0c0 21.56 17.54 39.096 39.097 39.096 21.558 0 39.096-17.537 39.096-39.097 0-21.557-17.537-39.094-39.095-39.094S44.18 61.715 44.18 83.272z"/><path d="M83.275 105.738c12.406 0 22.463-10.057 22.463-22.463 0-12.404-10.057-22.46-22.463-22.46S60.812 70.87 60.812 83.274c0 12.404 10.057 22.463 22.463 22.463" fill="#0db14b"/><path d="M61.423 83.273c0-12.05 9.803-21.852 21.852-21.852 12.05 0 21.852 9.804 21.852 21.853 0 12.05-9.803 21.854-21.852 21.854-12.05 0-21.852-9.805-21.852-21.854m-1.22 0c0 12.723 10.35 23.073 23.072 23.073 12.72 0 23.073-10.35 23.073-23.073s-10.352-23.07-23.073-23.07c-12.723 0-23.073 10.347-23.073 23.07z" fill="#0db14b"/><path d="M448.403 164.436c44.574 0 80.71-36.135 80.71-80.71 0-44.575-36.136-80.71-80.71-80.71-44.575 0-80.71 36.135-80.71 80.71 0 44.575 36.135 80.71 80.71 80.71" fill="#fff"/><path d="M370.26 83.727c0-43.093 35.054-78.146 78.143-78.146 43.09 0 78.146 35.054 78.146 78.147 0 43.09-35.057 78.146-78.147 78.146s-78.144-35.056-78.144-78.146m-5.13 0c0 45.915 37.356 83.273 83.273 83.273 45.917 0 83.273-37.358 83.273-83.273 0-45.917-37.356-83.275-83.273-83.275-45.917 0-83.273 37.358-83.273 83.275z"/><path d="M448.403 120.257c20.176 0 36.532-16.356 36.532-36.53 0-20.178-16.358-36.532-36.532-36.532-20.174 0-36.53 16.356-36.53 36.532 0 20.176 16.356 36.53 36.53 36.53" fill="#fff"/><path d="M414.436 83.727c0-18.73 15.236-33.97 33.967-33.97 18.727 0 33.967 15.24 33.967 33.97 0 18.727-15.24 33.968-33.967 33.968-18.73 0-33.967-15.24-33.967-33.968m-5.13 0c0 21.557 17.537 39.094 39.097 39.094 21.557 0 39.092-17.536 39.092-39.093 0-21.56-17.535-39.096-39.092-39.096-21.558 0-39.096 17.537-39.096 39.097z"/><path d="M448.403 106.188c12.404 0 22.46-10.057 22.46-22.46 0-12.407-10.056-22.462-22.46-22.462-12.406 0-22.46 10.055-22.46 22.46 0 12.405 10.054 22.462 22.46 22.462" fill="#ed1c24"/><path d="M426.552 83.727c0-12.05 9.803-21.854 21.85-21.854 12.052 0 21.853 9.805 21.853 21.854 0 12.047-9.8 21.852-21.852 21.852-12.048 0-21.85-9.806-21.85-21.853m-1.222 0c0 12.723 10.35 23.07 23.073 23.07s23.073-10.347 23.073-23.07c0-12.725-10.35-23.074-23.073-23.074-12.722 0-23.072 10.35-23.072 23.074z" fill="#ed1c24"/><path fill="#fff" d="M179.13 6.717h53.78L299.854 70.2V6.775h51.556V159.46h-41.517l-75.11-73.265v73.564h-55.83"/><path d="M231.888 9.283l70.53 66.883V9.336h46.428v147.56h-37.91c-1.463-1.43-78.716-76.786-78.716-76.786v77.083h-50.7c.006-4.882.165-143.044.172-147.912 4.554.003 48.324.003 50.196.003m1.023-5.13H176.57l-.18 158.17h60.96V92.28c7.73 7.536 71.502 69.744 71.502 69.744h45.123V4.208H297.29v60.025c-7.575-7.18-63.355-60.08-63.355-60.08h-1.024z"/><path fill="#fff" d="M543.646 6.594h110.128V39.44l-56.808.123V67.65h52.33l.176 33.375-52.913.12v58.49H543.82"/><path d="M651.208 9.16V36.88l-56.803.12v33.21h52.34c.024 3.99.128 24.234.153 28.253-4.658.017-52.9.122-52.9.122v58.483H546.39c-.01-4.868-.17-143.032-.173-147.913 4.778.002 100.217.002 104.99.002m2.567-5.13H541.08l.182 158.17h57.864v-58.493c4.632-.018 52.925-.122 52.925-.122l-.2-38.498H599.53V42.125c4.67-.012 56.807-.12 56.807-.12V4.03h-2.566z"/><path fill="#fff" d="M669.302 6.527H779.43v32.846l-56.807.125v28.084h52.327l-.053 33.376-52.682.122v58.488H669.48"/><path d="M776.864 9.09v27.723c-4.668.012-56.81.123-56.81.123v33.206h52.327l-.045 28.254c-4.624.018-52.685.122-52.685.122V157h-47.61c-.005-4.867-.167-143.03-.17-147.912 4.78.002 100.218.002 104.994.002m2.564-5.127H666.733l.184 158.17h57.862v-58.497c4.63-.017 52.674-.12 52.674-.12l.06-38.497h-52.33V42.056l56.806-.122V3.965h-2.562z"/></svg>